<svg width="20" height="21" viewBox="0 0 20 21" fill="none" xmlns="http://www.w3.org/2000/svg">
<path d="M19.0375 20.3097L17.3654 5.11044C17.3303 4.79225 17.0494 4.55064 16.7142 4.55064H13.5714V3.86668C13.5714 1.73467 11.7541 0 9.52062 0C7.28692 0 5.46964 1.73467 5.46964 3.86668V4.55064H2.32689C1.9917 4.55064 1.71072 4.79225 1.67564 5.11044L0.00355498 20.3097C-0.0157474 20.4858 0.0441738 20.6616 0.168212 20.7933C0.292419 20.9248 0.469329 21 0.654799 21H18.3861C18.5717 21 18.7486 20.9248 18.8727 20.7933C18.9971 20.6616 19.0568 20.4858 19.0375 20.3097ZM6.77918 3.86668C6.77918 2.42392 8.00899 1.25001 9.52062 1.25001C11.0321 1.25001 12.2619 2.42392 12.2619 3.86668V4.55064H6.77918V3.86668ZM1.38191 19.7499L2.91653 5.80065H5.46964V7.17804C5.46964 7.52315 5.76287 7.80304 6.12441 7.80304C6.48595 7.80304 6.77918 7.52315 6.77918 7.17804V5.80065H12.2619V7.17804C12.2619 7.52315 12.5551 7.80304 12.9167 7.80304C13.2782 7.80304 13.5714 7.52315 13.5714 7.17804V5.80065H16.1245L17.6592 19.7499H1.38191Z" fill="white"/>
</svg>
