<svg width="118" height="33" viewBox="0 0 118 33" fill="none" xmlns="http://www.w3.org/2000/svg">
<path d="M34.5996 1.19132C34.5842 1.60151 34.055 2.1738 33.012 2.90816L32.5371 3.12697C32.5975 2.69059 32.3251 2.4191 31.7202 2.3125C31.6746 2.29817 31.259 2.291 30.4736 2.291H29.8609C29.5276 2.291 29.0436 2.28352 28.4091 2.26855V11.7131C28.3487 12.5939 28.5453 13.1076 28.9987 13.2541C29.0649 13.2352 29.1341 13.2279 29.2029 13.2326C29.5054 13.2326 29.6567 13.3498 29.6567 13.5842C29.6461 13.6368 29.631 13.6884 29.6114 13.7385C29.3384 14.2995 28.658 14.8294 27.57 15.3282C27.01 15.6068 26.6924 15.7465 26.6173 15.7471C26.4554 15.6288 26.3198 15.4801 26.2185 15.3098C26.1172 15.1395 26.0523 14.9511 26.0277 14.7559V4.46978C26.0277 4.41118 25.8672 4.30115 25.546 4.13969C25.2291 3.99288 25.0923 3.88254 25.1385 3.80866C25.1231 3.7644 25.7204 3.25072 26.9304 2.26762H24.4353C24.1174 2.26762 24.0268 2.15821 24.1627 1.93753C24.6007 1.24742 25.3113 0.601581 26.2946 0C26.3633 0.0132831 26.4284 0.0407876 26.4852 0.0806427C26.5421 0.120498 26.5894 0.171769 26.624 0.23097C26.679 0.304305 26.7482 0.366414 26.8279 0.413746C26.9076 0.461079 26.9961 0.492709 27.0884 0.506825H32.8049C34.0014 0.508072 34.5996 0.736234 34.5996 1.19132Z" fill="white"/>
<path d="M41.5544 0.808106C41.5193 0.843752 41.4825 0.877508 41.444 0.909238C41.3982 0.949836 41.3609 0.999498 41.3345 1.05521C41.2606 1.14585 41.1726 1.25748 41.0697 1.39296C40.9668 1.52844 40.8498 1.67918 40.717 1.84137C40.2179 2.44053 39.9684 2.80754 39.9684 2.94238V12.8037C39.9684 13.1186 39.9759 13.2808 39.9909 13.298C40.0489 13.4935 40.2108 13.5899 40.4746 13.5899C40.6236 13.5856 40.7716 13.5632 40.9153 13.5231C40.6581 14.068 40.299 14.5565 39.858 14.9609C39.3291 15.4551 38.7711 15.7172 38.1841 15.7471C37.7431 15.5671 37.5448 15.2001 37.5891 14.6461V4.5147C37.5891 4.36587 37.4272 4.23802 37.1044 4.13307C36.8106 4.01381 36.6712 3.93081 36.6862 3.88596C36.6712 3.82618 36.906 3.59402 37.3907 3.18949C37.7914 2.84077 38.2188 2.52524 38.6688 2.2459H35.8487C35.5989 2.2459 35.4745 2.19343 35.4745 2.08848C35.4745 2.10374 35.4885 2.06654 35.5185 1.97685C35.9439 1.27274 36.6341 0.613791 37.5891 0C37.7225 0.0392007 37.8439 0.112424 37.9418 0.212758C38.079 0.335562 38.2467 0.417433 38.4265 0.449371H41.2016C41.4664 0.449371 41.5984 0.516156 41.5984 0.651635C41.577 0.70158 41.5622 0.754196 41.5544 0.808106Z" fill="white"/>
<path d="M52.0963 8.09796C52.0419 8.90727 51.6713 9.66497 51.0615 10.2138C50.434 10.7874 49.668 11.0742 48.7633 11.0742H45.8667V12.3802C45.8412 12.4912 45.8259 12.6041 45.8208 12.7177C45.8208 13.3028 46.1195 13.5954 46.717 13.5954C46.5491 14.0301 46.1813 14.4954 45.6138 14.9913C44.9708 15.5611 44.396 15.8087 43.8897 15.7341C43.4614 15.5391 43.247 15.2389 43.2463 14.8335C43.2307 14.4884 43.2239 14.1279 43.2239 13.7532V12.6059C43.2382 10.2641 43.2496 8.4106 43.258 7.04532C43.2665 5.68005 43.2626 4.80237 43.2463 4.41229C43.2463 4.33644 43.1161 4.23892 42.8558 4.11973C42.5955 4.00054 42.4959 3.90302 42.5571 3.82717C42.3885 3.50848 43.0091 2.953 44.4188 2.16073H41.9361C41.614 2.16073 41.5222 2.04887 41.6608 1.82324C42.0279 1.25342 42.725 0.64567 43.752 0C43.8594 0.0752113 44.1966 0.19536 44.7635 0.360442H48.8785C49.6751 0.360442 50.2495 0.428005 50.6016 0.56313C51.5981 0.998463 52.0963 1.92267 52.0963 3.33575V8.09796ZM49.476 2.74394C49.4917 2.69313 49.4993 2.64023 49.4984 2.58714C49.4984 2.21108 49.2918 2.06831 48.8785 2.15882H45.8442V10.0828C46.2334 9.87171 46.5819 9.59572 46.8742 9.26724L48.8268 9.24525C49.2563 9.22996 49.4711 9.03492 49.4711 8.66014L49.476 2.74394Z" fill="white"/>
<path d="M62.5862 12.3532C62.4883 12.6708 61.9924 13.2256 61.0987 14.0174C60.2737 14.7377 59.6589 15.2131 59.2542 15.4438C58.9279 15.6525 58.5492 15.7577 58.1654 15.7463C57.7816 15.7348 57.4095 15.6073 57.0954 15.3796C56.8153 15.1923 56.431 14.8392 55.9426 14.3203C55.2156 13.5995 54.6637 12.6054 54.2869 11.338C53.9938 10.3062 53.8455 9.23638 53.8462 8.16117C53.8405 6.8885 54.0099 5.62142 54.3492 4.39776C54.7539 2.92912 55.3337 1.85578 56.0886 1.17775C56.1592 1.09147 56.3269 0.990503 56.5916 0.874847C56.4806 0.889534 56.7848 0.896876 57.504 0.896876H60.9304C61.2283 0.897462 61.5246 0.941026 61.8108 1.0263C62.2019 1.12727 62.3975 1.30014 62.3975 1.54492C62.3975 1.87659 62.0553 2.30158 61.3711 2.81989C60.7978 3.26721 60.412 3.51199 60.2138 3.55421C60.1016 3.00347 59.9269 2.70087 59.6895 2.6464H56.734C56.4687 2.96339 56.2453 3.59001 56.0637 4.52627C55.9066 5.28667 55.8223 6.0611 55.8118 6.83848C55.8204 8.12207 56.0695 9.39185 56.5453 10.578C57.2574 12.3355 58.2776 13.2142 59.6058 13.2142C59.9548 13.2142 60.8153 12.7605 62.1874 11.853C62.4954 11.9861 62.6307 12.1522 62.5862 12.3532Z" fill="white"/>
<path d="M68.0522 6.47475H70.8026C71.611 6.45646 72.3942 6.76734 72.9847 7.34088C73.5692 7.88902 73.9223 8.65416 73.9673 9.47058L73.945 12.9601C73.8579 13.8519 73.6323 14.5092 73.2683 14.932C72.803 15.4754 72.0827 15.7471 71.1076 15.7471H64.4333C64.4032 15.7435 64.3742 15.7337 64.3479 15.7182C64.3216 15.7026 64.2986 15.6817 64.2803 15.6566C64.2735 15.6515 64.2678 15.6447 64.264 15.6368C64.2601 15.6289 64.2581 15.6202 64.2581 15.6114C64.2581 15.6026 64.2601 15.5939 64.264 15.586C64.2678 15.5781 64.2735 15.5713 64.2803 15.5662C64.2803 15.5517 64.2803 15.5431 64.2915 15.5431C64.3026 15.5431 64.3017 15.5363 64.3017 15.5209V15.4978C64.3017 15.4228 64.411 15.2486 64.6298 14.9772L65.1091 14.343C65.4114 13.8473 65.5775 13.2753 65.5892 12.6887L65.5679 4.55389C65.5679 4.40247 65.4079 4.27416 65.0877 4.16894C64.7967 4.04768 64.6586 3.9646 64.6734 3.91969C64.6586 3.85938 64.8912 3.62521 65.3714 3.21717C65.768 2.8649 66.1915 2.5466 66.6377 2.26539H63.84C63.5925 2.26539 63.4692 2.21247 63.4692 2.10661C63.4692 2.122 63.4831 2.08447 63.5128 1.99401C63.9349 1.28379 64.6187 0.619118 65.5642 0C65.6963 0.0397745 65.8165 0.113603 65.9137 0.214607C66.0498 0.338103 66.2158 0.420629 66.3939 0.45327H69.2962C69.5589 0.45327 69.6899 0.520958 69.6893 0.65633C69.6685 0.707205 69.6539 0.760534 69.6457 0.815118C69.616 0.845914 69.5799 0.879596 69.5363 0.917128C69.491 0.958358 69.4538 1.00837 69.4269 1.06437C69.3546 1.15483 69.2666 1.26839 69.1655 1.40408C69.0645 1.53977 68.9468 1.69279 68.8161 1.85736C68.3217 2.46172 68.0745 2.8319 68.0745 2.96792L68.0522 6.47475ZM71.3699 8.8999C71.3699 8.52265 71.166 8.32248 70.759 8.31093L69.0126 8.2888C68.8911 8.13259 68.7558 7.98857 68.6084 7.85863C68.4426 7.713 68.2638 7.5841 68.0745 7.47368V11.7793C68.0745 12.2778 67.5869 12.9877 66.6117 13.909H69.2072C69.5532 13.9128 69.8992 13.8977 70.2436 13.8637C70.4666 13.8467 70.6856 13.7931 70.8925 13.705C71.0353 13.6454 71.1545 13.5376 71.2308 13.3989C71.3051 13.2386 71.353 13.0665 71.3727 12.8898V8.8999H71.3699Z" fill="white"/>
<path d="M80.1616 6.86416C80.5153 6.43447 80.8461 5.98541 81.1527 5.51896C81.4903 5.00379 81.7913 4.4641 82.0531 3.90414C82.6805 2.5583 83.0013 1.40681 83.0155 0.449672H86.4144C86.705 0.449672 86.8503 0.584003 86.8503 0.852663C86.8503 1.39189 86.4218 2.02003 85.5649 2.73709C85.5649 2.40873 85.3613 2.24423 84.9542 2.24359H83.778C83.7052 2.60308 83.509 3.09657 83.1895 3.72408C82.8989 4.2957 82.7536 4.59866 82.7536 4.64439C82.7536 4.73394 82.9933 5.41416 83.4726 6.68506C83.7194 7.35766 83.952 7.96326 84.1704 8.50185C84.3888 9.04044 84.5775 9.5117 84.7367 9.91564L86.0878 13.3025C86.1747 13.5565 86.32 13.6835 86.5236 13.6835C86.6549 13.6834 86.7834 13.6444 86.8938 13.5711C86.9634 13.5425 87.0293 13.5051 87.0899 13.4597C87.0171 13.7137 86.734 14.1399 86.2404 14.7382C85.6852 15.4108 85.2494 15.7471 84.9329 15.7471C84.3665 15.7471 83.8363 14.9097 83.3422 13.2348C83.1682 12.7566 82.9939 12.2707 82.8193 11.7772C82.6447 11.2837 82.4779 10.7975 82.3187 10.3186C82.1151 9.75083 81.9115 9.2351 81.7079 8.77145C81.5044 8.30781 81.3011 7.88164 81.0981 7.49294C80.4016 8.2551 80.075 8.65142 80.1181 8.6819L80.1616 12.7861C80.1529 12.9509 80.16 13.1162 80.1829 13.2796C80.2412 13.4749 80.4013 13.5711 80.6623 13.5711C80.8096 13.5668 80.9559 13.5444 81.0981 13.5044C80.8434 14.0484 80.4882 14.536 80.0524 14.9402C79.5151 15.4483 78.963 15.7099 78.396 15.7252C77.9611 15.5454 77.7652 15.179 77.8084 14.6258V4.5091C77.8084 4.36048 77.6483 4.23282 77.329 4.12802C77.0385 4.02323 76.9003 3.94098 76.9145 3.88128C76.9009 3.82157 77.119 3.58975 77.5687 3.18581C77.9791 2.83635 78.4161 2.52128 78.8754 2.24359H76.0872C75.8401 2.24359 75.717 2.1912 75.717 2.0864C75.7259 2.04687 75.7406 2.00896 75.7605 1.97398C76.1813 1.27089 76.8639 0.6129 77.8084 0C77.94 0.0391748 78.0598 0.112301 78.1563 0.212452C78.2922 0.334707 78.458 0.416405 78.6357 0.448718H81.3813C81.6432 0.448718 81.7736 0.515406 81.7736 0.650689C81.7633 0.703905 81.7488 0.756162 81.7301 0.806932C81.647 0.878825 81.5736 0.961805 81.5118 1.05368C81.4396 1.14419 81.3526 1.25565 81.2508 1.39093C81.149 1.52622 81.0324 1.67674 80.9019 1.8387C80.4084 2.45223 80.1616 2.8187 80.1616 2.93811V6.86416Z" fill="white"/>
<path d="M94.0446 0.808106C94.0147 0.838636 93.9782 0.872029 93.9342 0.909238C93.8884 0.949836 93.8512 0.999498 93.8247 1.05521C93.7508 1.14585 93.6629 1.25748 93.5599 1.39296C93.457 1.52844 93.3401 1.67918 93.2072 1.84137C92.7082 2.44053 92.4587 2.80754 92.4587 2.94238V12.8037C92.4587 13.1186 92.4662 13.2808 92.4802 13.298C92.5391 13.4935 92.701 13.5899 92.9649 13.5899C93.1138 13.5856 93.2618 13.5632 93.4056 13.5231C93.1483 14.068 92.7892 14.5565 92.3483 14.9609C91.8199 15.4551 91.262 15.7172 90.6744 15.7471C90.234 15.5671 90.0356 15.2001 90.0793 14.6461V4.5147C90.0793 4.36587 89.9174 4.23802 89.5946 4.13307C89.3008 4.01381 89.1614 3.93081 89.1764 3.88596C89.1614 3.82618 89.3963 3.59402 89.8809 3.18949C90.2815 2.84055 90.7089 2.52501 91.1591 2.2459H88.339C88.0892 2.2459 87.9647 2.19343 87.9647 2.08848C87.9647 2.10374 87.9788 2.06654 88.0087 1.97685C88.4347 1.27274 89.1249 0.613791 90.0793 0C90.2126 0.0394323 90.334 0.112623 90.432 0.212758C90.5692 0.335562 90.7369 0.417433 90.9167 0.449371H93.6919C93.9567 0.449371 94.0886 0.516156 94.0886 0.651635C94.0672 0.70158 94.0524 0.754196 94.0446 0.808106Z" fill="white"/>
<path d="M29.1318 19.9135C29.1059 19.9389 29.0744 19.9661 29.0361 19.9971C28.9965 20.031 28.964 20.0722 28.9404 20.1183C28.8773 20.1935 28.8017 20.2865 28.7127 20.4002C28.6238 20.5139 28.5214 20.636 28.4095 20.776C27.979 21.2733 27.7637 21.5777 27.7637 21.6892V23.0497H30.9361V21.647C30.9361 21.4854 30.8404 21.3557 30.6491 21.2552C30.5277 21.1858 30.3905 21.1473 30.2501 21.1434C30.5206 20.6529 30.8889 20.2208 31.3331 19.8731C31.7757 19.5136 32.1364 19.3335 32.4151 19.3329C32.6064 19.3329 32.771 19.4581 32.9087 19.7087C32.9378 19.7468 32.9579 19.7907 32.9679 19.8373C32.9778 19.8838 32.9772 19.932 32.9661 19.9783C32.9426 20.0478 32.9297 20.1203 32.9279 20.1935L32.9087 30.2588C32.9324 30.3251 32.9725 30.3845 33.0255 30.4318C33.0784 30.479 33.1425 30.5126 33.212 30.5294C33.3766 30.5854 33.5525 30.6015 33.7248 30.5764C33.4449 31.065 33.0709 31.4955 32.6236 31.8438C32.2314 32.1939 31.8771 32.369 31.5608 32.369C31.3694 32.369 31.2125 32.2572 31.0824 32.0336C31.0044 31.8869 30.9532 31.7279 30.9313 31.5638V24.35H27.7647V29.8679C27.7559 30.0048 27.7623 30.1421 27.7838 30.2776C27.8345 30.4392 27.9752 30.52 28.2019 30.52C28.3312 30.5163 28.4597 30.4977 28.5846 30.4645C28.3629 30.9164 28.0535 31.3214 27.6738 31.6568C27.2184 32.0671 26.7311 32.2863 26.212 32.3145C25.8293 32.1648 25.6587 31.8604 25.7002 31.4013L25.7183 22.9943C25.7183 22.8828 25.5908 22.7769 25.3357 22.6767C25.0806 22.5765 24.9603 22.5082 24.975 22.4719C24.9616 22.4224 25.1514 22.2298 25.5442 21.8941C25.8889 21.6041 26.2572 21.3423 26.6454 21.1114H24.424C24.2087 21.1114 24.1016 21.0682 24.1016 20.9808C24.1016 20.993 24.114 20.962 24.1398 20.8869C24.5059 20.3025 25.1007 19.7557 25.924 19.2464C26.0388 19.279 26.1432 19.3398 26.2273 19.4231C26.3458 19.5248 26.4904 19.5927 26.6454 19.6194H28.8314C29.0591 19.6194 29.1729 19.6749 29.1729 19.7867C29.1541 19.8272 29.1402 19.8698 29.1318 19.9135Z" fill="white"/>
<path d="M44.2228 30.6653C44.003 31.0744 43.6946 31.4336 43.3182 31.7188C43.177 31.8814 43.0002 32.0121 42.8004 32.1016C42.6006 32.1912 42.3827 32.2373 42.1621 32.2367C41.7131 32.2367 41.495 31.8424 41.5079 31.0538V24.5484L38.2145 24.567C38.2268 24.6291 38.2333 25.1063 38.2339 25.9987V30.004C38.2339 30.5089 38.2077 30.8172 38.1573 30.928C38.0156 31.2609 37.7072 31.5751 37.2322 31.8707C36.7437 32.1663 36.3392 32.314 36.0189 32.314L35.5569 32.369L35.6336 32.1473C35.6385 32.0955 35.6551 32.0453 35.6821 32.0001C35.7142 31.9387 35.753 31.8735 35.7976 31.8055L35.9131 31.6303C35.9384 31.5977 35.9551 31.5597 35.9617 31.5195C35.9869 31.2233 36.0445 30.7551 36.1344 30.1148L36.1539 23.2955C36.1485 23.2407 36.1324 23.1872 36.1063 23.1381C36.0698 23.0646 36.0279 22.9936 35.9811 22.9257C35.9283 22.8513 35.8702 22.7803 35.8073 22.7134C35.7584 22.6576 35.6996 22.6106 35.6336 22.5746C35.6199 22.5594 35.6096 22.5418 35.6031 22.5228C35.5966 22.5038 35.5941 22.4837 35.5957 22.4637C35.5957 22.3395 35.8012 22.1178 36.2121 21.7987L37.1361 21.0963H34.8833C34.6134 21.0963 34.5361 21.0032 34.6513 20.8169C34.8182 20.5461 35.1266 20.2136 35.5763 19.8193C36.0121 19.4374 36.3276 19.2464 36.5198 19.2464C36.57 19.2524 36.6177 19.2709 36.6582 19.3C36.6987 19.329 36.7306 19.3677 36.7508 19.4122C36.8026 19.511 36.9181 19.579 37.0973 19.6162H41.9505C43.0027 19.6162 43.5291 20.041 43.5298 20.8905L43.5492 29.7246C43.5492 30.0329 43.6705 30.249 43.9151 30.3766C43.965 30.3836 44.0122 30.4024 44.0525 30.4314C44.0929 30.4603 44.125 30.4985 44.1461 30.5424C44.185 30.6225 44.2102 30.6653 44.2228 30.6653ZM41.4885 22.2197C41.4885 21.4677 41.1611 21.092 40.5062 21.0926H39.1386C38.7665 21.0926 38.452 21.0988 38.1951 21.1112V23.1996H41.4885V22.2197Z" fill="white"/>
<path d="M48.7397 21.1591C48.6654 21.8772 48.585 22.6484 48.4982 23.4726C48.4115 24.2969 48.3064 25.1177 48.1828 25.9351C48.058 26.7531 47.9126 27.5396 47.7467 28.2945C47.5999 28.9819 47.398 29.6563 47.143 30.3112C46.9485 30.8287 46.6726 31.3118 46.3259 31.7424C46.014 32.1077 45.6549 32.3028 45.2487 32.3278C44.9642 32.3521 44.7414 32.3119 44.5804 32.207C44.4194 32.1021 44.3081 31.9063 44.2463 31.6216C44.1839 31.2125 44.2463 30.7108 44.4335 30.1163C44.6207 29.5587 44.8001 29.224 44.9716 29.1122C45.0216 29.362 45.1464 29.4869 45.346 29.4869C45.5457 29.4869 45.7285 29.3723 45.8945 29.1432C46.0929 28.8541 46.2504 28.5388 46.3624 28.2065C46.5212 27.7505 46.6512 27.285 46.7518 26.8127C46.8697 26.2807 46.978 25.7172 47.0765 25.1221C47.1751 24.527 47.2687 23.9138 47.3573 23.2825C47.4434 22.6506 47.5239 22.037 47.5988 21.442C47.614 21.4084 47.6157 21.3703 47.6037 21.3354C47.5917 21.3006 47.5669 21.2717 47.5342 21.2546C47.4549 21.2128 47.3706 21.1814 47.2834 21.161H45.5454C45.5041 21.1647 45.4627 21.1561 45.4264 21.1363C45.3901 21.1164 45.3605 21.0862 45.3413 21.0495C45.3233 21.011 45.3155 20.9685 45.3188 20.9262C45.3221 20.8838 45.3363 20.843 45.3601 20.8078C45.7194 20.2383 46.2642 19.7179 46.9942 19.2464C47.0803 19.2464 47.1767 19.312 47.2825 19.4422C47.3862 19.5709 47.5359 19.6542 47.6999 19.6745H53.4006C53.697 19.6745 53.8455 19.7681 53.8461 19.9555C53.8284 19.9972 53.8159 20.0409 53.8087 20.0857C53.7446 20.2214 53.6701 20.352 53.5859 20.4763C53.4408 20.6945 53.2846 20.9052 53.118 21.1076C52.8091 21.4916 52.6531 21.8572 52.65 22.2044V30.1023C52.65 30.437 52.7988 30.6043 53.0964 30.6043C53.1405 30.6003 53.1839 30.5909 53.2256 30.5762C53.3043 30.5554 53.3856 30.5459 53.4671 30.5481C53.4549 30.6971 53.3679 30.8703 53.2078 31.0689C53.0375 31.2742 52.8475 31.4625 52.6406 31.6309C52.4355 31.8048 52.2164 31.9614 51.9855 32.0992C51.8249 32.2023 51.6498 32.2806 51.4661 32.3315C51.4033 32.3437 51.3481 32.3531 51.2985 32.3596C51.2489 32.3662 51.2115 32.369 51.1871 32.369C50.7778 32.369 50.5735 32.0652 50.5741 31.4576V23.1663C50.5741 23.117 50.4443 23.0233 50.1848 22.8853C49.9367 22.7495 49.8375 22.6559 49.8871 22.6043C49.897 22.5737 49.9129 22.5454 49.9339 22.521C50.0021 22.4379 50.0766 22.3603 50.1567 22.2887C50.274 22.1769 50.4412 22.0314 50.6583 21.8522C50.8755 21.673 51.1631 21.4407 51.5213 21.1553L48.7397 21.1591Z" fill="white"/>
<path d="M59.2281 19.918C59.2002 19.9475 59.1707 19.9755 59.1398 20.0015C59.1027 20.0349 59.0726 20.0762 59.0514 20.1227C58.9922 20.1978 58.9224 20.2908 58.8411 20.4045C58.7598 20.5181 58.6644 20.6402 58.5601 20.7801C58.1625 21.2773 57.964 21.5816 57.9646 21.6931V27.3386L60.8919 22.3082V21.6508C60.8919 21.4892 60.8036 21.3596 60.6268 21.2591C60.5151 21.1897 60.3887 21.1513 60.2593 21.1474C60.5091 20.6568 60.8496 20.2248 61.2604 19.8776C61.6695 19.5179 62.0017 19.3375 62.2597 19.3375C62.4364 19.3375 62.5881 19.4628 62.7147 19.7132C62.7416 19.7513 62.7602 19.7952 62.7694 19.8417C62.7785 19.8883 62.778 19.9364 62.7678 19.9828C62.746 20.0522 62.7341 20.1247 62.7324 20.1978L62.7147 30.2595C62.7368 30.3258 62.7741 30.3853 62.8231 30.4325C62.8722 30.4797 62.9315 30.5132 62.9957 30.53C63.1477 30.5861 63.3102 30.6022 63.4693 30.577C63.2106 31.0653 62.8653 31.4956 62.4523 31.844C62.0901 32.194 61.7628 32.369 61.4707 32.369C61.2939 32.369 61.1467 32.2572 61.0289 32.0337C60.9566 31.8871 60.9091 31.7281 60.8884 31.5641V24.7257L57.9646 29.7759V29.8698C57.9565 30.0065 57.9622 30.1438 57.9814 30.2793C58.0279 30.4408 58.1566 30.5216 58.3675 30.5216C58.487 30.5179 58.6056 30.4993 58.7209 30.4662C58.5158 30.9179 58.2298 31.3227 57.8789 31.658C57.4583 32.0681 57.0086 32.2873 56.5296 32.3155C56.1762 32.1658 56.0183 31.8615 56.056 31.4026L56.0737 22.9985C56.0737 22.8871 55.9559 22.7813 55.7203 22.6811C55.4861 22.5872 55.3757 22.5139 55.3872 22.4764C55.376 22.4269 55.5527 22.2344 55.9173 21.8987C56.2345 21.6073 56.5734 21.3438 56.9308 21.1107H55.0187C54.8199 21.1107 54.7209 21.0675 54.7209 20.9802C54.7209 20.9924 54.7324 20.9614 54.7563 20.8863C55.095 20.3021 55.6443 19.7555 56.4042 19.2464C56.5102 19.2788 56.6067 19.3396 56.6843 19.423C56.7937 19.5247 56.9272 19.5926 57.0704 19.6193H58.9463C59.1565 19.6193 59.2617 19.6747 59.2617 19.7865C59.2455 19.8287 59.2343 19.8728 59.2281 19.918Z" fill="white"/>
<path d="M73.0622 30.0511C72.987 30.7921 72.791 31.3386 72.4743 31.6907C72.0697 32.1429 71.4439 32.369 70.597 32.369H64.7941C64.7438 32.3564 64.6979 32.3305 64.6612 32.294C64.6553 32.2895 64.6505 32.2838 64.6472 32.2772C64.6438 32.2706 64.6421 32.2633 64.6421 32.256C64.6421 32.2486 64.6438 32.2413 64.6472 32.2347C64.6505 32.2281 64.6553 32.2224 64.6612 32.218C64.6612 32.2056 64.6612 32.1999 64.6708 32.1999C64.6803 32.1999 64.6803 32.1933 64.6803 32.1809V32.1619C64.6803 32.0986 64.7759 31.9542 64.9671 31.7287L65.3848 31.2006C65.6462 30.7881 65.7893 30.3124 65.7987 29.825V23.0586C65.7987 23.0206 65.6916 22.9332 65.4766 22.7945C65.2615 22.6558 65.1898 22.575 65.23 22.5095C65.2172 22.4595 65.7104 22.0196 66.7096 21.19H64.623C64.3573 21.19 64.2814 21.095 64.3955 20.905C64.7625 20.3154 65.3568 19.7626 66.1782 19.2464C66.2337 19.2569 66.2858 19.2804 66.3304 19.3149C66.3749 19.3495 66.4106 19.394 66.4343 19.445C66.4754 19.5083 66.5297 19.5621 66.5935 19.6028C66.6573 19.6434 66.7292 19.6699 66.8042 19.6806H70.8437C72.2207 19.6806 72.9096 20.3902 72.9102 21.8094C72.9102 23.3059 72.474 24.3362 71.6016 24.9005C71.9095 25.0193 72.1868 25.205 72.4132 25.444C72.6396 25.6829 72.8094 25.9692 72.9102 26.2817C73.0619 26.7212 73.1189 27.3229 73.0813 28.0866L73.0622 30.0511ZM70.8437 28.4115C70.8437 27.4818 70.7742 26.866 70.6353 26.5639C70.3804 26.049 69.7862 25.7916 68.8526 25.7916C68.5501 25.8158 68.2511 25.8725 67.9608 25.9607V29.0708C67.9608 29.4862 67.5374 30.0768 66.6905 30.8424H68.9473C69.2479 30.8455 69.5484 30.8329 69.8477 30.8044C70.0399 30.7902 70.2287 30.7456 70.4068 30.6724C70.531 30.6234 70.6348 30.534 70.7012 30.4188C70.7661 30.2851 70.8078 30.1416 70.8245 29.9941C70.8373 29.9694 70.8437 29.4419 70.8437 28.4115ZM70.9574 22.1913C70.9566 21.9379 70.8697 21.6922 70.7108 21.494C70.6461 21.3975 70.5588 21.3179 70.4564 21.2622C70.3541 21.2065 70.2396 21.1762 70.1229 21.1739H67.9608V24.9623C69.9585 24.7843 70.9574 23.8606 70.9574 22.1913Z" fill="white"/>
<path d="M78.0638 24.9681C78.3894 24.6094 78.6942 24.2347 78.9769 23.8458C79.2899 23.4167 79.569 22.9669 79.8118 22.5002C80.3887 21.3776 80.684 20.418 80.6975 19.6215H83.8374C84.1079 19.6215 84.2432 19.7336 84.2432 19.9579C84.2432 20.4064 83.8475 20.9297 83.0562 21.5278C83.0562 21.2535 82.8675 21.1169 82.4921 21.1169H81.4056C81.338 21.4153 81.1567 21.8265 80.8618 22.3504C80.5913 22.8241 80.456 23.0797 80.456 23.1174C80.456 23.1916 80.6775 23.7569 81.1205 24.8136C81.3491 25.3746 81.5639 25.8793 81.7647 26.3279C81.9656 26.7764 82.1401 27.169 82.2882 27.5058L83.5361 30.3327C83.6165 30.545 83.7518 30.6509 83.9419 30.6502C84.0636 30.6504 84.1827 30.6176 84.2848 30.556C84.3488 30.5314 84.4094 30.4997 84.4653 30.4618C84.3977 30.6741 84.1363 31.0294 83.6811 31.5275C83.1705 32.0885 82.7677 32.369 82.4729 32.369C81.9494 32.369 81.4597 31.6711 81.0039 30.2752C80.8429 29.8757 80.6819 29.4705 80.521 29.0596C80.3597 28.6478 80.2055 28.2436 80.0573 27.844C79.8693 27.371 79.6816 26.941 79.4943 26.554C79.3056 26.1677 79.1179 25.8134 78.9302 25.4883C78.2864 26.1246 77.9844 26.4551 78.0243 26.4796L78.0649 29.9011C78.057 30.0383 78.0638 30.176 78.0851 30.3119C78.1392 30.474 78.2867 30.5551 78.5275 30.5551C78.6646 30.5514 78.8008 30.5327 78.9333 30.4995C78.6982 30.9527 78.3701 31.3589 77.9675 31.6953C77.4704 32.1193 76.9604 32.3392 76.4376 32.3549C76.0318 32.2047 75.8505 31.8994 75.8938 31.4389V23.0053C75.8938 22.8796 75.7464 22.7735 75.4515 22.6868C75.181 22.6001 75.0535 22.5316 75.069 22.4814C75.0548 22.4317 75.2577 22.2386 75.6777 21.9019C76.0567 21.61 76.4608 21.3474 76.886 21.1169H74.3092C74.0809 21.1169 73.9673 21.0736 73.9673 20.9859C73.9753 20.9528 73.9886 20.9211 74.0068 20.8917C74.3964 20.3056 75.0271 19.7572 75.8989 19.2464C76.021 19.2789 76.132 19.3399 76.2215 19.4236C76.3468 19.5255 76.4998 19.5936 76.6638 19.6205H79.2001C79.4415 19.6205 79.5623 19.6761 79.5623 19.7883C79.5532 19.8329 79.5399 19.8767 79.5227 19.9192C79.4452 19.9787 79.3769 20.0478 79.3198 20.1247C79.2528 20.2 79.1717 20.2933 79.0783 20.4073C78.985 20.5214 78.8754 20.6439 78.7567 20.7843C78.3002 21.295 78.072 21.6003 78.072 21.7002L78.0638 24.9681Z" fill="white"/>
<path d="M89.4213 19.918C89.3906 19.9475 89.3581 19.9755 89.3241 20.0015C89.2833 20.0349 89.2501 20.0762 89.2269 20.1227C89.1617 20.1978 89.0849 20.2908 88.9954 20.4045C88.906 20.5181 88.801 20.6402 88.6862 20.7801C88.2487 21.2773 88.0302 21.5816 88.0309 21.6931V27.3386L91.2522 22.3082V21.6508C91.2522 21.4892 91.155 21.3596 90.9605 21.2591C90.8376 21.1897 90.6985 21.1513 90.556 21.1474C90.831 20.6568 91.2057 20.2248 91.6577 19.8776C92.1079 19.5179 92.4735 19.3375 92.7574 19.3375C92.9519 19.3375 93.1188 19.4628 93.2582 19.7132C93.2877 19.7513 93.3082 19.7952 93.3183 19.8417C93.3283 19.8883 93.3277 19.9364 93.3165 19.9828C93.2925 20.0522 93.2794 20.1247 93.2776 20.1978L93.2582 30.2595C93.2825 30.3258 93.3235 30.3853 93.3774 30.4325C93.4314 30.4797 93.4967 30.5132 93.5674 30.53C93.7346 30.5861 93.9135 30.6022 94.0886 30.577C93.8039 31.0653 93.4238 31.4956 92.9694 31.844C92.5733 32.194 92.2145 32.369 91.893 32.369C91.6985 32.369 91.5365 32.2572 91.4068 32.0337C91.3274 31.8871 91.275 31.7281 91.2522 31.5641V24.7257L88.0309 29.7759V29.8698C88.022 30.0065 88.0282 30.1438 88.0494 30.2793C88.1012 30.4408 88.2429 30.5216 88.4743 30.5216C88.6057 30.5179 88.7363 30.4993 88.8632 30.4662C88.6375 30.9179 88.3228 31.3227 87.9366 31.658C87.4737 32.0681 86.9788 32.2873 86.4518 32.3155C86.0629 32.1658 85.8892 31.8615 85.9306 31.4026L85.9501 22.9985C85.9501 22.8871 85.8204 22.7813 85.5612 22.6811C85.3035 22.5872 85.1819 22.5139 85.1946 22.4764C85.1816 22.4269 85.3745 22.2344 85.7731 21.8987C86.1237 21.6071 86.4983 21.3436 86.8933 21.1107H84.793C84.5742 21.1107 84.4653 21.0675 84.4653 20.9802C84.4653 20.9924 84.478 20.9614 84.5042 20.8863C84.877 20.3021 85.4814 19.7555 86.3176 19.2464C86.4343 19.2788 86.5405 19.3396 86.6259 19.423C86.7463 19.5247 86.8932 19.5926 87.0508 19.6193H89.115C89.3465 19.6193 89.4622 19.6747 89.4622 19.7865C89.4431 19.8285 89.4293 19.8727 89.4213 19.918Z" fill="white"/>
<path d="M16.9022 9.96778C16.7591 9.45182 17.0837 8.35169 17.5675 7.99743C17.686 7.91113 17.8733 7.92118 18.0285 7.88741C18.0857 8.04789 18.1182 8.21614 18.1248 8.3864C18.0808 8.51931 18.0036 8.63879 17.9005 8.73353C17.5586 9.16245 17.2112 9.58717 16.9022 9.96778Z" fill="white"/>
<path d="M18.1242 11.3798C18.3877 11.056 18.6077 10.755 18.8597 10.4821C19.0564 10.2755 19.2703 10.0861 19.4991 9.91583C19.5762 9.8574 19.7756 9.8135 19.7926 9.84654C19.8575 9.95463 19.9377 10.1283 19.8938 10.2167C19.7895 10.4443 19.6379 10.6472 19.449 10.8116C19.0581 11.1152 18.6445 11.4144 18.1242 11.3798Z" fill="white"/>
<path d="M15.2579 8.57798C15.1655 8.15483 15.0633 7.75789 14.9941 7.34397C14.9469 7.07355 14.7715 6.67482 15.1821 6.59873C15.5927 6.52263 15.6123 6.95031 15.6282 7.2287C15.6553 7.7298 15.5722 8.2109 15.2579 8.57798Z" fill="white"/>
<path d="M6.26838 6.81655C9.98287 8.75206 14.058 10.9145 17.7728 12.8485C17.5353 13.1352 16.8636 13.8109 16.639 14.1032C16.0567 14.8573 15.4744 15.6115 14.9097 16.38C14.3129 17.1923 13.7339 18.0175 13.1537 18.8408C12.7707 19.3915 12.4193 19.9484 12.0248 20.4781C11.6749 20.9621 11.2942 21.4231 10.8853 21.8583C10.0197 22.7573 8.95984 23.1224 7.71287 22.8848C6.26589 22.6218 4.93027 21.9331 3.8769 20.9067C2.98156 20.0388 2.71117 18.9583 2.87608 17.7393C2.97583 17.1232 3.14161 16.5196 3.37056 15.9389C3.95376 14.3325 4.56715 12.7477 5.1142 11.1343C5.5013 9.99476 5.79887 8.82521 6.13745 7.66992C6.16425 7.38314 6.20798 7.09819 6.26838 6.81655ZM6.62772 7.93004L6.60533 7.97258C6.59798 7.97986 6.59164 7.98808 6.58647 7.99704C6.31259 9.00544 6.06826 10.0228 5.75912 11.0196C5.43423 12.0649 5.03399 13.0877 4.68257 14.1247C4.44539 14.8416 4.20913 15.5618 4.03463 16.294C3.6631 17.8417 4.41637 19.0682 5.59551 19.7805C6.32096 20.2262 7.08337 20.6087 7.87433 20.9238C8.54602 21.2122 9.29924 21.2484 9.99552 21.0259C10.7254 20.7702 11.3594 20.2971 11.8122 19.6701C12.3708 18.9333 12.8985 18.1622 13.4297 17.4137C14.2912 16.2074 15.1809 15.0332 16.1397 13.9054C16.3302 13.6831 16.5114 13.4526 16.721 13.1965C13.37 11.3774 10.0289 9.59625 6.62772 7.93004Z" fill="white"/>
<path d="M2.45177 18.1897C2.47013 18.4717 2.47483 18.7275 2.50631 18.9824C2.63697 19.9776 3.13373 20.7723 3.88211 21.4161C5.01629 22.4155 6.41591 23.0647 7.91148 23.2849C8.82879 23.423 9.76379 23.198 10.5178 22.6577C10.5552 22.6298 10.5991 22.612 10.6453 22.6059C10.6157 22.6612 10.5876 22.7167 10.5581 22.7719C9.88174 24.0707 11.1971 21.544 10.5204 22.8443C9.97997 23.8803 9.43499 24.9155 8.90297 25.9563C8.85985 26.0511 8.79057 26.1317 8.70327 26.1886C8.61596 26.2455 8.51424 26.2763 8.41004 26.2774C7.96584 26.2905 7.52276 26.226 7.10066 26.087C5.55746 25.8446 4.37154 25.1669 3.13542 24.4341C2.39092 23.9684 1.70808 23.4108 1.10305 22.7744C0.93007 22.5922 0.774529 22.3942 0.638462 22.183C0.58863 22.1135 0.56018 22.031 0.556609 21.9455C0.553038 21.8601 0.5745 21.7755 0.618359 21.7021C1.87244 19.2885 1.13794 20.7089 2.39503 18.2959C2.40849 18.2751 2.42551 18.244 2.45177 18.1897ZM8.2591 24.4024C7.1051 24.2252 5.99951 23.9604 4.95749 23.4266C3.93715 22.8815 3.03504 22.1394 2.30338 21.2434C2.2538 21.3369 2.21618 21.4093 2.17856 21.4817C1.41265 22.9507 2.64834 20.5992 1.86825 22.0607C1.80444 22.1511 1.77533 22.2615 1.78625 22.3716C1.79716 22.4817 1.84737 22.5843 1.92769 22.6604C1.98274 22.7228 2.03268 22.7873 2.08652 22.8479C2.45013 23.2496 2.87103 23.5954 3.33563 23.8742C4.2462 24.4781 5.2374 24.9505 6.27993 25.2774C6.67097 25.4078 7.0805 25.4742 7.49271 25.474C7.56238 25.4775 7.63144 25.4595 7.69048 25.4223C7.74953 25.3852 7.79568 25.3307 7.82266 25.2664C8.6109 23.7392 7.41415 26.0436 8.20782 24.5206C8.22007 24.498 8.23317 24.463 8.25851 24.4054L8.2591 24.4024Z" fill="white"/>
<path d="M5.8023 12.9017C8.45633 14.2857 13.0444 12.1067 15.6969 13.4904C15.4873 13.7622 13.995 15.6506 13.8038 15.9166C13.2751 16.6473 12.7495 17.3833 12.2271 18.1247C11.7979 18.7195 11.4122 19.3401 10.8429 19.8121C10.0029 20.508 9.0698 20.6649 8.05176 20.2484C7.24701 19.9263 6.47688 19.5236 5.75312 19.0465C5.38382 18.7712 5.08575 18.4115 4.88381 17.9975C4.56593 17.4317 4.5748 16.8266 4.71768 16.2321C4.87152 15.5975 5.07779 14.9747 5.28528 14.3537L5.8023 12.9017Z" fill="white"/>
<path d="M101.098 9.96778C101.241 9.45182 100.916 8.35169 100.433 7.99743C100.314 7.91113 100.127 7.92118 99.9716 7.88741C99.9144 8.04789 99.8819 8.21614 99.8753 8.3864C99.9193 8.51931 99.9965 8.63879 100.1 8.73353C100.442 9.16245 100.789 9.58717 101.098 9.96778Z" fill="white"/>
<path d="M99.8758 11.3798C99.6123 11.056 99.3923 10.755 99.1403 10.4821C98.9436 10.2755 98.7297 10.0861 98.5009 9.91583C98.4238 9.8574 98.2244 9.8135 98.2074 9.84654C98.1425 9.95463 98.0623 10.1283 98.1062 10.2167C98.2105 10.4443 98.3621 10.6472 98.551 10.8116C98.9419 11.1152 99.3555 11.4144 99.8758 11.3798Z" fill="white"/>
<path d="M102.742 8.57798C102.834 8.15483 102.937 7.75789 103.006 7.34397C103.053 7.07355 103.228 6.67482 102.818 6.59873C102.407 6.52263 102.388 6.95031 102.372 7.2287C102.345 7.7298 102.428 8.2109 102.742 8.57798Z" fill="white"/>
<path d="M111.732 6.81655C108.017 8.75206 103.942 10.9145 100.227 12.8485C100.465 13.1352 101.136 13.8109 101.361 14.1032C101.943 14.8573 102.526 15.6115 103.09 16.38C103.687 17.1923 104.266 18.0175 104.846 18.8408C105.229 19.3915 105.581 19.9484 105.975 20.4781C106.325 20.9621 106.706 21.4231 107.115 21.8583C107.98 22.7573 109.04 23.1224 110.287 22.8848C111.734 22.6218 113.07 21.9331 114.123 20.9067C115.018 20.0388 115.289 18.9583 115.124 17.7393C115.024 17.1232 114.858 16.5196 114.629 15.9389C114.046 14.3325 113.433 12.7477 112.886 11.1343C112.499 9.99476 112.201 8.82521 111.863 7.66992C111.836 7.38314 111.792 7.09819 111.732 6.81655ZM111.372 7.93004L111.395 7.97258C111.402 7.97986 111.408 7.98808 111.414 7.99704C111.687 9.00544 111.932 10.0228 112.241 11.0196C112.566 12.0649 112.966 13.0877 113.317 14.1247C113.555 14.8416 113.791 15.5618 113.965 16.294C114.337 17.8417 113.584 19.0682 112.404 19.7805C111.679 20.2262 110.917 20.6087 110.126 20.9238C109.454 21.2122 108.701 21.2484 108.004 21.0259C107.275 20.7702 106.641 20.2971 106.188 19.6701C105.629 18.9333 105.101 18.1622 104.57 17.4137C103.709 16.2074 102.819 15.0332 101.86 13.9054C101.67 13.6831 101.489 13.4526 101.279 13.1965C104.63 11.3774 107.971 9.59625 111.372 7.93004Z" fill="white"/>
<path d="M115.548 18.1897C115.53 18.4717 115.525 18.7275 115.494 18.9824C115.363 19.9776 114.866 20.7723 114.118 21.4161C112.984 22.4155 111.584 23.0647 110.089 23.2849C109.171 23.423 108.236 23.198 107.482 22.6577C107.445 22.6298 107.401 22.612 107.355 22.6059C107.384 22.6612 107.412 22.7167 107.442 22.7719C108.118 24.0707 106.803 21.544 107.48 22.8443C108.02 23.8803 108.565 24.9155 109.097 25.9563C109.14 26.0511 109.209 26.1317 109.297 26.1886C109.384 26.2455 109.486 26.2763 109.59 26.2774C110.034 26.2905 110.477 26.226 110.899 26.087C112.443 25.8446 113.628 25.1669 114.865 24.4341C115.609 23.9684 116.292 23.4108 116.897 22.7744C117.07 22.5922 117.225 22.3942 117.362 22.183C117.411 22.1135 117.44 22.031 117.443 21.9455C117.447 21.8601 117.426 21.7755 117.382 21.7021C116.128 19.2885 116.862 20.7089 115.605 18.2959C115.592 18.2751 115.574 18.244 115.548 18.1897ZM109.741 24.4024C110.895 24.2252 112 23.9604 113.043 23.4266C114.063 22.8815 114.965 22.1394 115.697 21.2434C115.746 21.3369 115.784 21.4093 115.821 21.4817C116.587 22.9507 115.352 20.5992 116.132 22.0607C116.196 22.1511 116.225 22.2615 116.214 22.3716C116.203 22.4817 116.153 22.5843 116.072 22.6604C116.017 22.7228 115.967 22.7873 115.913 22.8479C115.55 23.2496 115.129 23.5954 114.664 23.8742C113.754 24.4781 112.763 24.9505 111.72 25.2774C111.329 25.4078 110.919 25.4742 110.507 25.474C110.438 25.4775 110.369 25.4595 110.31 25.4223C110.25 25.3852 110.204 25.3307 110.177 25.2664C109.389 23.7392 110.586 26.0436 109.792 24.5206C109.78 24.498 109.767 24.463 109.741 24.4054L109.741 24.4024Z" fill="white"/>
<path d="M112.198 12.9017C109.544 14.2857 104.956 12.1067 102.303 13.4904C102.513 13.7622 104.005 15.6506 104.196 15.9166C104.725 16.6473 105.25 17.3833 105.773 18.1247C106.202 18.7195 106.588 19.3401 107.157 19.8121C107.997 20.508 108.93 20.6649 109.948 20.2484C110.753 19.9263 111.523 19.5236 112.247 19.0465C112.616 18.7712 112.914 18.4115 113.116 17.9975C113.434 17.4317 113.425 16.8266 113.282 16.2321C113.128 15.5975 112.922 14.9747 112.715 14.3537L112.198 12.9017Z" fill="white"/>
</svg>
