<svg width="22" height="22" viewBox="0 0 22 22" fill="none" xmlns="http://www.w3.org/2000/svg">
<g clip-path="url(#clip0)">
<path d="M21.7494 20.5399L16.3803 15.1709C17.7149 13.566 18.5189 11.5052 18.5189 9.25977C18.5189 4.15391 14.3652 0 9.25953 0C4.15379 0 0 4.15391 0 9.25977C0 14.3653 4.15379 18.5188 9.25953 18.5188C11.5049 18.5188 13.5658 17.7149 15.1707 16.3804L20.5398 21.7494C20.7068 21.9165 20.9258 22 21.1446 22C21.3635 22 21.5825 21.9165 21.7495 21.7494C22.0836 21.4154 22.0836 20.8739 21.7494 20.5399ZM1.71069 9.25977C1.71069 5.09719 5.09707 1.7107 9.25953 1.7107C13.4219 1.7107 16.8081 5.09719 16.8081 9.25977C16.8081 13.422 13.4219 16.8082 9.25953 16.8082C5.09707 16.8082 1.71069 13.422 1.71069 9.25977Z" fill="white"/>
</g>
<defs>
<clipPath id="clip0">
<rect width="22" height="22" fill="white"/>
</clipPath>
</defs>
</svg>
